# Blender v2.79 (sub 0) OBJ File: 'humanblock-bone2-walk.blend'
# www.blender.org
mtllib humanblock-bone2-walk_25.mtl
o Cube_Cube.004
v -0.764918 4.291412 0.742209
v -0.764918 5.836649 0.742209
v -0.764918 4.291412 -0.803029
v -0.764919 5.836649 -0.803028
v 0.780319 4.291412 0.742209
v 0.780319 5.836650 0.742209
v 0.780319 4.291412 -0.803029
v 0.780319 5.836650 -0.803029
vt 0.257052 0.282854
vt 0.492948 0.282854
vt 0.492948 0.518750
vt 0.257052 0.518750
vt 0.492948 0.754646
vt 0.257052 0.754646
vt 0.492948 0.990542
vt 0.257052 0.990542
vt 0.257052 0.046958
vt 0.492948 0.046958
vt 0.021156 0.754646
vt 0.021156 0.518750
vt 0.728844 0.518750
vt 0.728844 0.754646
vn -1.0000 -0.0000 0.0000
vn -0.0000 -0.0000 -1.0000
vn 1.0000 0.0000 -0.0000
vn 0.0000 -0.0000 1.0000
vn 0.0000 -1.0000 0.0000
vn -0.0000 1.0000 0.0000
usemtl Material.001
s off
f 1/1/1 2/2/1 4/3/1 3/4/1
f 3/4/2 4/3/2 8/5/2 7/6/2
f 7/6/3 8/5/3 6/7/3 5/8/3
f 5/9/4 6/10/4 2/2/4 1/1/4
f 3/4/5 7/6/5 5/11/5 1/12/5
f 8/5/6 4/3/6 2/13/6 6/14/6
o Cube.008_Cube.002
v -1.598137 2.510743 -1.256327
v -1.620720 2.164893 -0.730945
v -1.590414 4.181114 -0.156417
v -1.612997 3.835263 0.368966
v -1.023049 2.497533 -1.240303
v -1.045632 2.151682 -0.714921
v -1.015326 4.167903 -0.140393
v -1.037909 3.822053 0.384989
vn -0.9993 0.0230 -0.0278
vn 0.0039 0.8352 0.5500
vn 0.9993 -0.0230 0.0278
vn -0.0039 -0.8352 -0.5500
vn 0.0359 0.5495 -0.8347
vn -0.0359 -0.5495 0.8347
usemtl Material.004
s off
f 9//7 10//7 12//7 11//7
f 11//8 12//8 16//8 15//8
f 15//9 16//9 14//9 13//9
f 13//10 14//10 10//10 9//10
f 11//11 15//11 13//11 9//11
f 16//12 12//12 10//12 14//12
o Cube.002_Cube.006
v 1.157849 2.421606 1.137051
v 1.157606 2.901236 1.544609
v 1.035481 3.714204 -0.384203
v 1.035237 4.193834 0.023355
v 1.732234 2.444574 1.110364
v 1.731990 2.924205 1.517922
v 1.609865 3.737172 -0.410890
v 1.609622 4.216803 -0.003332
vn -0.9981 -0.0399 0.0464
vn -0.0612 0.6463 -0.7606
vn 0.9981 0.0399 -0.0464
vn 0.0612 -0.6463 0.7606
vn 0.0004 -0.7620 -0.6475
vn -0.0004 0.7620 0.6475
usemtl Material.004
s off
f 17//13 18//13 20//13 19//13
f 19//14 20//14 24//14 23//14
f 23//15 24//15 22//15 21//15
f 21//16 22//16 18//16 17//16
f 19//17 23//17 21//17 17//17
f 24//18 20//18 18//18 22//18
o Cube.001_Cube.005
v -0.997500 1.853863 -0.565572
v -0.997500 1.853863 0.473280
v -0.997500 4.268026 -0.565572
v -0.997500 4.268026 0.473280
v 1.002500 1.853863 -0.565572
v 1.002500 1.853863 0.473280
v 1.002500 4.268026 -0.565572
v 1.002500 4.268026 0.473280
vn -1.0000 -0.0000 0.0000
vn 0.0000 1.0000 0.0000
vn 1.0000 0.0000 0.0000
vn 0.0000 -1.0000 0.0000
vn -0.0000 -0.0000 -1.0000
vn 0.0000 0.0000 1.0000
usemtl Material.002
s off
f 25//19 26//19 28//19 27//19
f 27//20 28//20 32//20 31//20
f 31//21 32//21 30//21 29//21
f 29//22 30//22 26//22 25//22
f 27//23 31//23 29//23 25//23
f 32//24 28//24 26//24 30//24
o Cube.004_Cube.008
v -0.743758 -0.107855 0.520778
v -0.743758 0.155394 1.092485
v -0.743758 1.708807 -0.315725
v -0.743758 1.972057 0.255983
v -0.168296 -0.107855 0.520777
v -0.168296 0.155394 1.092485
v -0.168295 1.708807 -0.315725
v -0.168295 1.972057 0.255982
vn -1.0000 0.0000 -0.0000
vn -0.0000 0.9083 -0.4183
vn 1.0000 -0.0000 0.0000
vn 0.0000 -0.9083 0.4183
vn -0.0000 -0.4183 -0.9083
vn 0.0000 0.4183 0.9083
usemtl Material.003
s off
f 33//25 34//25 36//25 35//25
f 35//26 36//26 40//26 39//26
f 39//27 40//27 38//27 37//27
f 37//28 38//28 34//28 33//28
f 35//29 39//29 37//29 33//29
f 40//30 36//30 34//30 38//30
o Cube.005_Cube.009
v 0.164031 0.123930 -1.080307
v 0.164031 -0.119047 -0.499695
v 0.164031 1.968891 -0.308220
v 0.164031 1.725913 0.272393
v 0.739494 0.123930 -1.080307
v 0.739494 -0.119047 -0.499695
v 0.739494 1.968891 -0.308220
v 0.739494 1.725913 0.272393
vn -1.0000 0.0000 -0.0000
vn 0.0000 0.9225 0.3860
vn 1.0000 -0.0000 0.0000
vn -0.0000 -0.9225 -0.3860
vn 0.0000 0.3860 -0.9225
vn -0.0000 -0.3860 0.9225
usemtl Material.003
s off
f 41//31 42//31 44//31 43//31
f 43//32 44//32 48//32 47//32
f 47//33 48//33 46//33 45//33
f 45//34 46//34 42//34 41//34
f 43//35 47//35 45//35 41//35
f 48//36 44//36 42//36 46//36
