# Blender v2.79 (sub 0) OBJ File: 'humanblock-bone2-walk.blend'
# www.blender.org
mtllib humanblock-bone2-walk_45.mtl
o Cube_Cube.004
v -0.764918 4.415878 0.763858
v -0.764918 5.961115 0.763858
v -0.764918 4.415878 -0.781380
v -0.764918 5.961115 -0.781380
v 0.780319 4.415878 0.763858
v 0.780319 5.961116 0.763858
v 0.780319 4.415878 -0.781380
v 0.780319 5.961116 -0.781380
vt 0.257052 0.282854
vt 0.492948 0.282854
vt 0.492948 0.518750
vt 0.257052 0.518750
vt 0.492948 0.754646
vt 0.257052 0.754646
vt 0.492948 0.990542
vt 0.257052 0.990542
vt 0.257052 0.046958
vt 0.492948 0.046958
vt 0.021156 0.754646
vt 0.021156 0.518750
vt 0.728844 0.518750
vt 0.728844 0.754646
vn -1.0000 -0.0000 0.0000
vn -0.0000 -0.0000 -1.0000
vn 1.0000 0.0000 -0.0000
vn 0.0000 -0.0000 1.0000
vn 0.0000 -1.0000 0.0000
vn -0.0000 1.0000 0.0000
usemtl Material.001
s off
f 1/1/1 2/2/1 4/3/1 3/4/1
f 3/4/2 4/3/2 8/5/2 7/6/2
f 7/6/3 8/5/3 6/7/3 5/8/3
f 5/9/4 6/10/4 2/2/4 1/1/4
f 3/4/5 7/6/5 5/11/5 1/12/5
f 8/5/6 4/3/6 2/13/6 6/14/6
o Cube.008_Cube.002
v -1.606696 2.151837 0.069596
v -1.629079 2.296857 0.681656
v -1.589178 4.098025 -0.390886
v -1.611561 4.243045 0.221174
v -1.031619 2.151648 0.090671
v -1.054002 2.296667 0.702731
v -1.014102 4.097836 -0.369811
v -1.036484 4.242855 0.242249
vn -0.9993 0.0003 -0.0366
vn 0.0088 0.9731 -0.2302
vn 0.9993 -0.0003 0.0366
vn -0.0088 -0.9731 0.2302
vn 0.0356 -0.2304 -0.9724
vn -0.0356 0.2304 0.9724
usemtl Material.004
s off
f 9//7 10//7 12//7 11//7
f 11//8 12//8 16//8 15//8
f 15//9 16//9 14//9 13//9
f 13//10 14//10 10//10 9//10
f 11//11 15//11 13//11 9//11
f 16//12 12//12 10//12 14//12
o Cube.002_Cube.006
v 1.148618 2.239172 -0.691448
v 1.148313 2.100372 -0.077540
v 1.036588 4.186882 -0.251141
v 1.036282 4.048083 0.362767
v 1.723177 2.270551 -0.684068
v 1.722872 2.131752 -0.070159
v 1.611146 4.218262 -0.243761
v 1.610841 4.079463 0.370147
vn -0.9984 -0.0545 -0.0128
vn -0.0560 0.9739 0.2202
vn 0.9984 0.0545 0.0128
vn 0.0560 -0.9739 -0.2202
vn 0.0005 0.2205 -0.9754
vn -0.0005 -0.2205 0.9754
usemtl Material.004
s off
f 17//13 18//13 20//13 19//13
f 19//14 20//14 24//14 23//14
f 23//15 24//15 22//15 21//15
f 21//16 22//16 18//16 17//16
f 19//17 23//17 21//17 17//17
f 24//18 20//18 18//18 22//18
o Cube.001_Cube.005
v -0.997500 1.978329 -0.543923
v -0.997500 1.978329 0.494929
v -0.997500 4.392493 -0.543923
v -0.997500 4.392493 0.494929
v 1.002500 1.978329 -0.543923
v 1.002500 1.978329 0.494929
v 1.002500 4.392493 -0.543923
v 1.002500 4.392493 0.494929
vn -1.0000 -0.0000 0.0000
vn -0.0000 1.0000 -0.0000
vn 1.0000 0.0000 0.0000
vn 0.0000 -1.0000 0.0000
vn -0.0000 -0.0000 -1.0000
vn 0.0000 0.0000 1.0000
usemtl Material.002
s off
f 25//19 26//19 28//19 27//19
f 27//20 28//20 32//20 31//20
f 31//21 32//21 30//21 29//21
f 29//22 30//22 26//22 25//22
f 27//23 31//23 29//23 25//23
f 32//24 28//24 26//24 30//24
o Cube.004_Cube.008
v -0.743758 0.046219 -0.667826
v -0.743758 -0.057562 -0.047037
v -0.743758 2.018844 -0.338050
v -0.743758 1.915063 0.282739
v -0.168295 0.046219 -0.667826
v -0.168295 -0.057562 -0.047037
v -0.168295 2.018844 -0.338050
v -0.168295 1.915063 0.282739
vn -1.0000 0.0000 0.0000
vn 0.0000 0.9863 0.1649
vn 1.0000 -0.0000 0.0000
vn -0.0000 -0.9863 -0.1649
vn -0.0000 0.1649 -0.9863
vn 0.0000 -0.1649 0.9863
usemtl Material.003
s off
f 33//25 34//25 36//25 35//25
f 35//26 36//26 40//26 39//26
f 39//27 40//27 38//27 37//27
f 37//28 38//28 34//28 33//28
f 35//29 39//29 37//29 33//29
f 40//30 36//30 34//30 38//30
o Cube.005_Cube.009
v 0.164031 -0.039461 -0.000032
v 0.164031 0.053948 0.622401
v 0.164031 1.938392 -0.296848
v 0.164031 2.031800 0.325585
v 0.739494 -0.039461 -0.000033
v 0.739494 0.053948 0.622401
v 0.739494 1.938391 -0.296848
v 0.739494 2.031800 0.325585
vn -1.0000 -0.0000 -0.0000
vn 0.0000 0.9889 -0.1484
vn 1.0000 0.0000 0.0000
vn 0.0000 -0.9889 0.1484
vn -0.0000 -0.1484 -0.9889
vn 0.0000 0.1484 0.9889
usemtl Material.003
s off
f 41//31 42//31 44//31 43//31
f 43//32 44//32 48//32 47//32
f 47//33 48//33 46//33 45//33
f 45//34 46//34 42//34 41//34
f 43//35 47//35 45//35 41//35
f 48//36 44//36 42//36 46//36
