# Blender v2.79 (sub 0) OBJ File: 'humanblock-bone2-walk.blend'
# www.blender.org
mtllib humanblock-bone2-walk_50.mtl
o Cube_Cube.004
v -0.764918 4.336327 0.763690
v -0.764918 5.881564 0.763690
v -0.764918 4.336326 -0.781548
v -0.764919 5.881564 -0.781548
v 0.780319 4.336327 0.763690
v 0.780319 5.881564 0.763690
v 0.780319 4.336326 -0.781548
v 0.780319 5.881564 -0.781548
vt 0.257052 0.282854
vt 0.492948 0.282854
vt 0.492948 0.518750
vt 0.257052 0.518750
vt 0.492948 0.754646
vt 0.257052 0.754646
vt 0.492948 0.990542
vt 0.257052 0.990542
vt 0.257052 0.046958
vt 0.492948 0.046958
vt 0.021156 0.754646
vt 0.021156 0.518750
vt 0.728844 0.518750
vt 0.728844 0.754646
vn -1.0000 -0.0000 0.0000
vn -0.0000 -0.0000 -1.0000
vn 1.0000 0.0000 -0.0000
vn -0.0000 -0.0000 1.0000
vn 0.0000 -1.0000 0.0000
vn -0.0000 1.0000 0.0000
usemtl Material.001
s off
f 1/1/1 2/2/1 4/3/1 3/4/1
f 3/4/2 4/3/2 8/5/2 7/6/2
f 7/6/3 8/5/3 6/7/3 5/8/3
f 5/9/4 6/10/4 2/2/4 1/1/4
f 3/4/5 7/6/5 5/11/5 1/12/5
f 8/5/6 4/3/6 2/13/6 6/14/6
o Cube.008_Cube.002
v -1.606054 2.174283 0.575645
v -1.628126 2.491091 1.119055
v -1.589460 3.902326 -0.431127
v -1.611532 4.219133 0.112284
v -1.030965 2.180319 0.595483
v -1.053037 2.497127 1.138894
v -1.014372 3.908362 -0.411288
v -1.036443 4.225170 0.132123
vn -0.9994 -0.0105 -0.0345
vn 0.0083 0.8640 -0.5034
vn 0.9994 0.0105 0.0345
vn -0.0083 -0.8640 0.5034
vn 0.0351 -0.5033 -0.8634
vn -0.0351 0.5033 0.8634
usemtl Material.004
s off
f 9//7 10//7 12//7 11//7
f 11//8 12//8 16//8 15//8
f 15//9 16//9 14//9 13//9
f 13//10 14//10 10//10 9//10
f 11//11 15//11 13//11 9//11
f 16//12 12//12 10//12 14//12
o Cube.002_Cube.006
v 1.149561 2.361067 -1.063385
v 1.148993 2.083643 -0.498420
v 1.036610 4.153484 -0.183340
v 1.036043 3.876061 0.381625
v 1.724104 2.390010 -1.048596
v 1.723537 2.112587 -0.483631
v 1.611154 4.182428 -0.168551
v 1.610587 3.905005 0.396414
vn -0.9984 -0.0503 -0.0257
vn -0.0565 0.8962 0.4400
vn 0.9984 0.0503 0.0257
vn 0.0565 -0.8962 -0.4400
vn 0.0009 0.4408 -0.8976
vn -0.0009 -0.4408 0.8976
usemtl Material.004
s off
f 17//13 18//13 20//13 19//13
f 19//14 20//14 24//14 23//14
f 23//15 24//15 22//15 21//15
f 21//16 22//16 18//16 17//16
f 19//17 23//17 21//17 17//17
f 24//18 20//18 18//18 22//18
o Cube.001_Cube.005
v -0.997500 1.898777 -0.544091
v -0.997500 1.898777 0.494761
v -0.997500 4.312941 -0.544091
v -0.997500 4.312942 0.494761
v 1.002500 1.898777 -0.544091
v 1.002500 1.898777 0.494761
v 1.002500 4.312941 -0.544091
v 1.002500 4.312942 0.494761
vn -1.0000 -0.0000 0.0000
vn -0.0000 1.0000 -0.0000
vn 1.0000 0.0000 0.0000
vn 0.0000 -1.0000 0.0000
vn -0.0000 -0.0000 -1.0000
vn 0.0000 0.0000 1.0000
usemtl Material.002
s off
f 25//19 26//19 28//19 27//19
f 27//20 28//20 32//20 31//20
f 31//21 32//21 30//21 29//21
f 29//22 30//22 26//22 25//22
f 27//23 31//23 29//23 25//23
f 32//24 28//24 26//24 30//24
o Cube.004_Cube.008
v -0.743758 0.140423 -1.051398
v -0.743758 -0.087513 -0.464717
v -0.743758 2.004665 -0.327106
v -0.743758 1.776729 0.259575
v -0.168295 0.140423 -1.051398
v -0.168295 -0.087513 -0.464717
v -0.168295 2.004665 -0.327106
v -0.168295 1.776729 0.259575
vn -1.0000 0.0000 -0.0000
vn -0.0000 0.9321 0.3621
vn 1.0000 -0.0000 0.0000
vn -0.0000 -0.9321 -0.3621
vn -0.0000 0.3621 -0.9321
vn 0.0000 -0.3621 0.9321
usemtl Material.003
s off
f 33//25 34//25 36//25 35//25
f 35//26 36//26 40//26 39//26
f 39//27 40//27 38//27 37//27
f 37//28 38//28 34//28 33//28
f 35//29 39//29 37//29 33//29
f 40//30 36//30 34//30 38//30
o Cube.005_Cube.009
v 0.164031 -0.082548 0.369207
v 0.164031 0.122264 0.964355
v 0.164031 1.808601 -0.281604
v 0.164031 2.013413 0.313544
v 0.739494 -0.082548 0.369207
v 0.739494 0.122264 0.964355
v 0.739494 1.808601 -0.281604
v 0.739494 2.013412 0.313544
vn -1.0000 -0.0000 -0.0000
vn 0.0000 0.9456 -0.3254
vn 1.0000 0.0000 0.0000
vn -0.0000 -0.9456 0.3254
vn -0.0000 -0.3254 -0.9456
vn 0.0000 0.3254 0.9456
usemtl Material.003
s off
f 41//31 42//31 44//31 43//31
f 43//32 44//32 48//32 47//32
f 47//33 48//33 46//33 45//33
f 45//34 46//34 42//34 41//34
f 43//35 47//35 45//35 41//35
f 48//36 44//36 42//36 46//36
