# Blender v2.79 (sub 0) OBJ File: 'humanblock-bone2-walk.blend'
# www.blender.org
mtllib humanblock-bone2-walk_60.mtl
o Cube_Cube.004
v -0.764918 4.226395 0.761972
v -0.764918 5.771632 0.761972
v -0.764918 4.226395 -0.783266
v -0.764919 5.771632 -0.783265
v 0.780319 4.226395 0.761972
v 0.780319 5.771633 0.761972
v 0.780319 4.226395 -0.783266
v 0.780319 5.771633 -0.783266
vt 0.257052 0.282854
vt 0.492948 0.282854
vt 0.492948 0.518750
vt 0.257052 0.518750
vt 0.492948 0.754646
vt 0.257052 0.754646
vt 0.492948 0.990542
vt 0.257052 0.990542
vt 0.257052 0.046958
vt 0.492948 0.046958
vt 0.021156 0.754646
vt 0.021156 0.518750
vt 0.728844 0.518750
vt 0.728844 0.754646
vn -1.0000 -0.0000 0.0000
vn -0.0000 -0.0000 -1.0000
vn 1.0000 0.0000 -0.0000
vn 0.0000 -0.0000 1.0000
vn 0.0000 -1.0000 0.0000
vn -0.0000 1.0000 0.0000
usemtl Material.001
s off
f 1/1/1 2/2/1 4/3/1 3/4/1
f 3/4/2 4/3/2 8/5/2 7/6/2
f 7/6/3 8/5/3 6/7/3 5/8/3
f 5/9/4 6/10/4 2/2/4 1/1/4
f 3/4/5 7/6/5 5/11/5 1/12/5
f 8/5/6 4/3/6 2/13/6 6/14/6
o Cube.008_Cube.002
v -1.599492 2.330170 1.057619
v -1.622221 2.799981 1.475842
v -1.590116 3.660226 -0.435988
v -1.612845 4.130037 -0.017765
v -1.024411 2.343897 1.073453
v -1.047140 2.813707 1.491676
v -1.015035 3.673953 -0.420155
v -1.037764 4.143764 -0.001931
vn -0.9993 -0.0239 -0.0275
vn 0.0047 0.6650 -0.7468
vn 0.9993 0.0239 0.0275
vn -0.0047 -0.6650 0.7468
vn 0.0361 -0.7464 -0.6645
vn -0.0361 0.7464 0.6645
usemtl Material.004
s off
f 9//7 10//7 12//7 11//7
f 11//8 12//8 16//8 15//8
f 15//9 16//9 14//9 13//9
f 13//10 14//10 10//10 9//10
f 11//11 15//11 13//11 9//11
f 16//12 12//12 10//12 14//12
o Cube.002_Cube.006
v 1.156242 2.520196 -1.368957
v 1.156242 2.123826 -0.880040
v 1.035545 4.070950 -0.111740
v 1.035545 3.674579 0.377177
v 1.730656 2.547173 -1.347086
v 1.730656 2.150802 -0.858170
v 1.609959 4.097927 -0.089869
v 1.609959 3.701556 0.399047
vn -0.9982 -0.0469 -0.0380
vn -0.0603 0.7754 0.6286
vn 0.9982 0.0469 0.0380
vn 0.0603 -0.7754 -0.6286
vn -0.0000 0.6298 -0.7768
vn -0.0000 -0.6298 0.7768
usemtl Material.004
s off
f 17//13 18//13 20//13 19//13
f 19//14 20//14 24//14 23//14
f 23//15 24//15 22//15 21//15
f 21//16 22//16 18//16 17//16
f 19//17 23//17 21//17 17//17
f 24//18 20//18 18//18 22//18
o Cube.001_Cube.005
v -0.997500 1.788846 -0.545809
v -0.997500 1.788846 0.493043
v -0.997500 4.203010 -0.545809
v -0.997500 4.203010 0.493043
v 1.002500 1.788846 -0.545809
v 1.002500 1.788846 0.493043
v 1.002500 4.203010 -0.545809
v 1.002500 4.203010 0.493043
vn -1.0000 -0.0000 0.0000
vn 0.0000 1.0000 0.0000
vn 1.0000 0.0000 0.0000
vn 0.0000 -1.0000 0.0000
vn -0.0000 -0.0000 -1.0000
vn 0.0000 0.0000 1.0000
usemtl Material.002
s off
f 25//19 26//19 28//19 27//19
f 27//20 28//20 32//20 31//20
f 31//21 32//21 30//21 29//21
f 29//22 30//22 26//22 25//22
f 27//23 31//23 29//23 25//23
f 32//24 28//24 26//24 30//24
o Cube.004_Cube.008
v -0.743758 0.294916 -1.411020
v -0.743758 -0.053819 -0.887061
v -0.743758 1.959854 -0.302877
v -0.743758 1.611119 0.221082
v -0.168295 0.294916 -1.411020
v -0.168295 -0.053819 -0.887061
v -0.168295 1.959854 -0.302877
v -0.168296 1.611119 0.221082
vn -1.0000 0.0000 -0.0000
vn 0.0000 0.8325 0.5541
vn 1.0000 -0.0000 0.0000
vn 0.0000 -0.8325 -0.5541
vn -0.0000 0.5541 -0.8325
vn 0.0000 -0.5541 0.8325
usemtl Material.003
s off
f 33//25 34//25 36//25 35//25
f 35//26 36//26 40//26 39//26
f 39//27 40//27 38//27 37//27
f 37//28 38//28 34//28 33//28
f 35//29 39//29 37//29 33//29
f 40//30 36//30 34//30 38//30
o Cube.005_Cube.009
v 0.164031 -0.082536 0.741953
v 0.164031 0.232017 1.287119
v 0.164031 1.649789 -0.257572
v 0.164031 1.964341 0.287594
v 0.739494 -0.082536 0.741953
v 0.739493 0.232017 1.287119
v 0.739494 1.649789 -0.257572
v 0.739493 1.964341 0.287594
vn -1.0000 -0.0000 -0.0000
vn 0.0000 0.8662 -0.4998
vn 1.0000 0.0000 0.0000
vn 0.0000 -0.8662 0.4998
vn 0.0000 -0.4998 -0.8662
vn 0.0000 0.4998 0.8662
usemtl Material.003
s off
f 41//31 42//31 44//31 43//31
f 43//32 44//32 48//32 47//32
f 47//33 48//33 46//33 45//33
f 45//34 46//34 42//34 41//34
f 43//35 47//35 45//35 41//35
f 48//36 44//36 42//36 46//36
