# Blender v2.79 (sub 0) OBJ File: 'humanblock-bone2-walk.blend'
# www.blender.org
mtllib humanblock-bone2-walk_0.mtl
o Cube_Cube.004
v -0.764918 4.446335 0.761972
v -0.764918 5.991572 0.761972
v -0.764918 4.446334 -0.783266
v -0.764919 5.991572 -0.783265
v 0.780319 4.446335 0.761972
v 0.780319 5.991572 0.761972
v 0.780319 4.446334 -0.783266
v 0.780319 5.991572 -0.783266
vt 0.257052 0.282854
vt 0.492948 0.282854
vt 0.492948 0.518750
vt 0.257052 0.518750
vt 0.492948 0.754646
vt 0.257052 0.754646
vt 0.492948 0.990542
vt 0.257052 0.990542
vt 0.257052 0.046958
vt 0.492948 0.046958
vt 0.021156 0.754646
vt 0.021156 0.518750
vt 0.728844 0.518750
vt 0.728844 0.754646
vn -1.0000 -0.0000 0.0000
vn -0.0000 -0.0000 -1.0000
vn 1.0000 0.0000 -0.0000
vn 0.0000 -0.0000 1.0000
vn 0.0000 -1.0000 0.0000
vn -0.0000 1.0000 0.0000
usemtl Material.001
s off
f 1/1/1 2/2/1 4/3/1 3/4/1
f 3/4/2 4/3/2 8/5/2 7/6/2
f 7/6/3 8/5/3 6/7/3 5/8/3
f 5/9/4 6/10/4 2/2/4 1/1/4
f 3/4/5 7/6/5 5/11/5 1/12/5
f 8/5/6 4/3/6 2/13/6 6/14/6
o Cube.008_Cube.002
v -1.599492 2.207429 -0.338602
v -1.622221 2.207476 0.290391
v -1.590116 4.207407 -0.338412
v -1.612845 4.207454 0.290581
v -1.024411 2.204731 -0.317821
v -1.047140 2.204778 0.311172
v -1.015035 4.204709 -0.317631
v -1.037764 4.204756 0.311362
vn -0.9993 0.0047 -0.0361
vn 0.0047 1.0000 0.0001
vn 0.9993 -0.0047 0.0361
vn -0.0047 -1.0000 -0.0001
vn 0.0361 -0.0001 -0.9993
vn -0.0361 0.0001 0.9993
usemtl Material.004
s off
f 9//7 10//7 12//7 11//7
f 11//8 12//8 16//8 15//8
f 15//9 16//9 14//9 13//9
f 13//10 14//10 10//10 9//10
f 11//11 15//11 13//11 9//11
f 16//12 12//12 10//12 14//12
o Cube.002_Cube.006
v 1.156242 2.162388 -0.306011
v 1.156242 2.162385 0.323393
v 1.035545 4.158742 -0.306004
v 1.035545 4.158741 0.323400
v 1.730656 2.197116 -0.306011
v 1.730656 2.197114 0.323393
v 1.609959 4.193471 -0.306004
v 1.609959 4.193469 0.323400
vn -0.9982 -0.0603 -0.0000
vn -0.0603 0.9982 0.0000
vn 0.9982 0.0603 0.0000
vn 0.0603 -0.9982 -0.0000
vn -0.0000 0.0000 -1.0000
vn 0.0000 -0.0000 1.0000
usemtl Material.004
s off
f 17//13 18//13 20//13 19//13
f 19//14 20//14 24//14 23//14
f 23//15 24//15 22//15 21//15
f 21//16 22//16 18//16 17//16
f 19//17 23//17 21//17 17//17
f 24//18 20//18 18//18 22//18
o Cube.001_Cube.005
v -0.997500 2.008785 -0.545809
v -0.997500 2.008785 0.493043
v -0.997500 4.422949 -0.545809
v -0.997500 4.422949 0.493043
v 1.002500 2.008785 -0.545809
v 1.002500 2.008785 0.493043
v 1.002500 4.422949 -0.545809
v 1.002500 4.422949 0.493043
vn -1.0000 -0.0000 0.0000
vn -0.0000 1.0000 -0.0000
vn 1.0000 0.0000 0.0000
vn 0.0000 -1.0000 0.0000
vn -0.0000 -0.0000 -1.0000
vn 0.0000 0.0000 1.0000
usemtl Material.002
s off
f 25//19 26//19 28//19 27//19
f 27//20 28//20 32//20 31//20
f 31//21 32//21 30//21 29//21
f 29//22 30//22 26//22 25//22
f 27//23 31//23 29//23 25//23
f 32//24 28//24 26//24 30//24
o Cube.004_Cube.008
v -0.743758 -0.004325 -0.339029
v -0.743758 -0.004325 0.290375
v -0.743758 1.995675 -0.339029
v -0.743758 1.995675 0.290375
v -0.168295 -0.004325 -0.339029
v -0.168295 -0.004325 0.290375
v -0.168295 1.995675 -0.339029
v -0.168295 1.995675 0.290375
vn -1.0000 0.0000 0.0000
vn -0.0000 1.0000 -0.0000
vn 1.0000 -0.0000 0.0000
vn 0.0000 -1.0000 0.0000
vn -0.0000 -0.0000 -1.0000
vn 0.0000 0.0000 1.0000
usemtl Material.003
s off
f 33//25 34//25 36//25 35//25
f 35//26 36//26 40//26 39//26
f 39//27 40//27 38//27 37//27
f 37//28 38//28 34//28 33//28
f 35//29 39//29 37//29 33//29
f 40//30 36//30 34//30 38//30
o Cube.005_Cube.009
v 0.164031 0.011390 -0.304380
v 0.164031 0.011390 0.325024
v 0.164031 2.011390 -0.304380
v 0.164031 2.011390 0.325023
v 0.739494 0.011390 -0.304380
v 0.739494 0.011390 0.325024
v 0.739494 2.011390 -0.304380
v 0.739494 2.011390 0.325023
vn -1.0000 0.0000 -0.0000
vn 0.0000 1.0000 -0.0000
vn 1.0000 0.0000 0.0000
vn -0.0000 -1.0000 0.0000
vn -0.0000 -0.0000 -1.0000
vn -0.0000 0.0000 1.0000
usemtl Material.003
s off
f 41//31 42//31 44//31 43//31
f 43//32 44//32 48//32 47//32
f 47//33 48//33 46//33 45//33
f 45//34 46//34 42//34 41//34
f 43//35 47//35 45//35 41//35
f 48//36 44//36 42//36 46//36
