# Blender v2.79 (sub 0) OBJ File: 'humanblock-bone2-walk.blend'
# www.blender.org
mtllib humanblock-bone2-walk_55.mtl
o Cube_Cube.004
v -0.764918 4.256797 0.762547
v -0.764918 5.802034 0.762547
v -0.764918 4.256796 -0.782690
v -0.764919 5.802034 -0.782690
v 0.780319 4.256797 0.762547
v 0.780319 5.802034 0.762547
v 0.780319 4.256796 -0.782690
v 0.780319 5.802034 -0.782691
vt 0.257052 0.282854
vt 0.492948 0.282854
vt 0.492948 0.518750
vt 0.257052 0.518750
vt 0.492948 0.754646
vt 0.257052 0.754646
vt 0.492948 0.990542
vt 0.257052 0.990542
vt 0.257052 0.046958
vt 0.492948 0.046958
vt 0.021156 0.754646
vt 0.021156 0.518750
vt 0.728844 0.518750
vt 0.728844 0.754646
vn -1.0000 -0.0000 0.0000
vn -0.0000 -0.0000 -1.0000
vn 1.0000 0.0000 -0.0000
vn 0.0000 -0.0000 1.0000
vn 0.0000 -1.0000 0.0000
vn -0.0000 1.0000 0.0000
usemtl Material.001
s off
f 1/1/1 2/2/1 4/3/1 3/4/1
f 3/4/2 4/3/2 8/5/2 7/6/2
f 7/6/3 8/5/3 6/7/3 5/8/3
f 5/9/4 6/10/4 2/2/4 1/1/4
f 3/4/5 7/6/5 5/11/5 1/12/5
f 8/5/6 4/3/6 2/13/6 6/14/6
o Cube.008_Cube.002
v -1.601635 2.278356 0.942896
v -1.624059 2.712947 1.397623
v -1.589956 3.724481 -0.438618
v -1.612379 4.159073 0.016109
v -1.026548 2.290089 0.960040
v -1.048971 2.724681 1.414768
v -1.014868 3.736215 -0.421474
v -1.037291 4.170806 0.033254
vn -0.9993 -0.0204 -0.0298
vn 0.0058 0.7231 -0.6908
vn 0.9993 0.0204 0.0298
vn -0.0058 -0.7231 0.6908
vn 0.0356 -0.6905 -0.7225
vn -0.0356 0.6905 0.7225
usemtl Material.004
s off
f 9//7 10//7 12//7 11//7
f 11//8 12//8 16//8 15//8
f 15//9 16//9 14//9 13//9
f 13//10 14//10 10//10 9//10
f 11//11 15//11 13//11 9//11
f 16//12 12//12 10//12 14//12
o Cube.002_Cube.006
v 1.154091 2.477822 -1.298946
v 1.153833 2.109240 -0.788754
v 1.035926 4.096210 -0.129819
v 1.035668 3.727627 0.380373
v 1.728549 2.505244 -1.278844
v 1.728291 2.136662 -0.768652
v 1.610383 4.123632 -0.109718
v 1.610125 3.755050 0.400474
vn -0.9983 -0.0477 -0.0349
vn -0.0591 0.8092 0.5846
vn 0.9983 0.0477 0.0349
vn 0.0591 -0.8092 -0.5846
vn 0.0004 0.5856 -0.8106
vn -0.0004 -0.5856 0.8106
usemtl Material.004
s off
f 17//13 18//13 20//13 19//13
f 19//14 20//14 24//14 23//14
f 23//15 24//15 22//15 21//15
f 21//16 22//16 18//16 17//16
f 19//17 23//17 21//17 17//17
f 24//18 20//18 18//18 22//18
o Cube.001_Cube.005
v -0.997500 1.819247 -0.545234
v -0.997500 1.819247 0.493619
v -0.997500 4.233411 -0.545234
v -0.997500 4.233411 0.493618
v 1.002500 1.819247 -0.545234
v 1.002500 1.819247 0.493618
v 1.002500 4.233411 -0.545234
v 1.002500 4.233411 0.493618
vn -1.0000 -0.0000 0.0000
vn 0.0000 1.0000 0.0000
vn 1.0000 0.0000 0.0000
vn 0.0000 -1.0000 0.0000
vn -0.0000 -0.0000 -1.0000
vn 0.0000 0.0000 1.0000
usemtl Material.002
s off
f 25//19 26//19 28//19 27//19
f 27//20 28//20 32//20 31//20
f 31//21 32//21 30//21 29//21
f 29//22 30//22 26//22 25//22
f 27//23 31//23 29//23 25//23
f 32//24 28//24 26//24 30//24
o Cube.004_Cube.008
v -0.743758 0.250495 -1.324612
v -0.743758 -0.068723 -0.782165
v -0.743758 1.974181 -0.310263
v -0.743758 1.654963 0.232185
v -0.168295 0.250495 -1.324612
v -0.168295 -0.068723 -0.782165
v -0.168295 1.974181 -0.310263
v -0.168296 1.654963 0.232185
vn -1.0000 0.0000 -0.0000
vn -0.0000 0.8618 0.5072
vn 1.0000 0.0000 0.0000
vn 0.0000 -0.8618 -0.5072
vn 0.0000 0.5072 -0.8618
vn 0.0000 -0.5072 0.8618
usemtl Material.003
s off
f 33//25 34//25 36//25 35//25
f 35//26 36//26 40//26 39//26
f 39//27 40//27 38//27 37//27
f 37//28 38//28 34//28 33//28
f 35//29 39//29 37//29 33//29
f 40//30 36//30 34//30 38//30
o Cube.005_Cube.009
v 0.164031 -0.086975 0.649131
v 0.164031 0.200531 1.209032
v 0.164031 1.692174 -0.264449
v 0.164031 1.979679 0.295452
v 0.739494 -0.086975 0.649131
v 0.739494 0.200531 1.209032
v 0.739494 1.692174 -0.264449
v 0.739494 1.979679 0.295452
vn -1.0000 -0.0000 -0.0000
vn 0.0000 0.8896 -0.4568
vn 1.0000 0.0000 0.0000
vn 0.0000 -0.8896 0.4568
vn 0.0000 -0.4568 -0.8896
vn 0.0000 0.4568 0.8896
usemtl Material.003
s off
f 41//31 42//31 44//31 43//31
f 43//32 44//32 48//32 47//32
f 47//33 48//33 46//33 45//33
f 45//34 46//34 42//34 41//34
f 43//35 47//35 45//35 41//35
f 48//36 44//36 42//36 46//36
